<?xml version="1.0" encoding="UTF-8"?>
<svg width="72px" height="26px" viewBox="0 0 72 26" version="1.1" xmlns="http://www.w3.org/2000/svg" xmlns:xlink="http://www.w3.org/1999/xlink">
    <!-- Generator: Sketch 51.2 (57519) - http://www.bohemiancoding.com/sketch -->
    <title>parcel-sm</title>
    <desc>Created with Sketch.</desc>
    <defs></defs>
    <g id="parcel-sm" stroke="none" stroke-width="1" fill="none" fill-rule="evenodd">
        <g id="ic/multi-modal/parcel-mini" fill="#575451">
            <path d="M43.0128713,20 L31.9871962,20 C31.9956623,19.9116103 32,19.8226516 32,19.7333333 C32,17.5683116 30.4316884,16 28.7333333,16 C27.0535896,16 25.7330364,16.9440476 25.2254383,18.3783784 L20,18.3783784 L20,5 L44.9350649,5 L48.6753247,10.6756757 L52,11.8918919 L52,18.3783784 L49.779822,18.3783784 C49.2904246,16.9440476 48.0510455,16 46.7333333,16 C44.5682675,16 43,17.5683116 43,19.7333333 C43,19.8226516 43.0043375,19.9116103 43.0128713,20 Z M28.7272727,17 C29.8797851,17 31,18.1202149 31,19.7272727 C31,20.8797851 29.8797851,22 28.7272727,22 C27.1202149,22 26,20.8797851 26,19.7272727 C26,18.1202149 27.1202149,17 28.7272727,17 Z M46.7272727,17 C47.8797975,17 49,18.1202149 49,19.7272727 C49,20.8797851 47.8797975,22 46.7272727,22 C45.1202025,22 44,20.8797851 44,19.7272727 C44,18.1202149 45.1202025,17 46.7272727,17 Z" id="Parcel-mini"></path>
        </g>
    </g>
</svg>