<?xml version="1.0" encoding="UTF-8"?>
<svg width="188px" height="64px" viewBox="0 0 188 64" version="1.1" xmlns="http://www.w3.org/2000/svg" xmlns:xlink="http://www.w3.org/1999/xlink">
    <!-- Generator: Sketch 51.2 (57519) - http://www.bohemiancoding.com/sketch -->
    <title>ltl</title>
    <desc>Created with Sketch.</desc>
    <defs></defs>
    <g id="ltl" stroke="none" stroke-width="1" fill="none" fill-rule="evenodd">
        <g id="ic/multi-modal/LTL" fill="#575451">
            <path d="M30.5001,47 C32.9836,47 35,49.0165 35,51.5 C35,53.9836 32.9836,56 30.5001,56 C28.0164,56 26,53.9836 26,51.5 C26,49.0165 28.0164,47 30.5001,47 Z M41.5001,47 C43.9836,47 46,49.0165 46,51.5 C46,53.9836 43.9836,56 41.5001,56 C39.0164,56 37,53.9836 37,51.5 C37,49.0165 39.0164,47 41.5001,47 Z M163.499,47 C165.984,47 168,49.0165 168,51.5 C168,53.9836 165.984,56 163.499,56 C161.015,56 159,53.9836 159,51.5 C159,49.0165 161.015,47 163.499,47 Z M104.5,47 C106.9836,47 109,49.0165 109,51.5 C109,53.9836 106.9836,56 104.5,56 C102.0164,56 100,53.9836 100,51.5 C100,49.0165 102.0164,47 104.5,47 Z M115.499,47 C117.984,47 120,49.0165 120,51.5 C120,53.9836 117.984,56 115.499,56 C113.0164,56 111,53.9836 111,51.5 C111,49.0165 113.0164,47 115.499,47 Z M14,45 L14,41.9224 L130,41.9224 L130,13 C130,13 135.215,13 139.907,13 C142.163,13 144.327,13.9061 145.923,15.5191 C147.519,17.1321 148.415,19.3197 148.415,21.6007 L148.415,20.8341 L157.15,20.8341 L158.148,29.2184 L158.148,29 L174,31.0172 L174,52 L169.513,52 C169.513,48.4976 166.737,45.6542 163.318,45.6542 C159.899,45.6542 157.123,48.4975 157.123,52 L126,52 L126,45 L14,45 Z M14,40 L127,40 L127,8 L14,8 L14,40 Z M88,11 L17.0268981,11 L17,37 L88,37 L88,11 Z" id="VLTL"></path>
        </g>
    </g>
</svg>