<?xml version="1.0" encoding="UTF-8"?>
<svg width="72px" height="26px" viewBox="0 0 72 26" version="1.1" xmlns="http://www.w3.org/2000/svg" xmlns:xlink="http://www.w3.org/1999/xlink">
    <!-- Generator: Sketch 51.2 (57519) - http://www.bohemiancoding.com/sketch -->
    <title>ocean-sm</title>
    <desc>Created with Sketch.</desc>
    <defs></defs>
    <g id="ocean-sm" stroke="none" stroke-width="1" fill="none" fill-rule="evenodd">
        <g id="ic/multi-modal/ocean-mini" fill="#575451">
            <path d="M72,13 C71.9422246,18.545997 68.3154332,22.1308061 65,22 C62.8228128,22.2048273 61.0254439,26 61,26 L10,26 C9.56467807,26 10.1105765,23.6602364 5,22 C0.682303743,20.4281606 0.00079144385,16.5063364 0,17 L50,17 L58,14 L60,13 L72,13 Z M20,16 L29,16 L29,13 L20,13 L20,16 Z M3,16 L12,16 L12,13 L3,13 L3,16 Z M30,16 L39,16 L39,13 L30,13 L30,16 Z M40,16 L49,16 L49,13 L40,13 L40,16 Z M13,16 L19,16 L19,1 L13,1 L13,16 Z M58,13 L50,16 L50,13 L58,13 Z M20,12 L29,12 L29,9 L20,9 L20,12 Z M3,12 L12,12 L12,9 L3,9 L3,12 Z M30,12 L39,12 L39,9 L30,9 L30,12 Z M40,12 L49,12 L49,9 L40,9 L40,12 Z M50,12 L59,12 L59,9 L50,9 L50,12 Z M60,12 L69,12 L69,9 L60,9 L60,12 Z M20,8 L29,8 L29,5 L20,5 L20,8 Z M3,8 L12,8 L12,5 L3,5 L3,8 Z M30,8 L39,8 L39,5 L30,5 L30,8 Z M40,8 L49,8 L49,5 L40,5 L40,8 Z" id="Ocean-mini"></path>
        </g>
    </g>
</svg>