<?xml version="1.0" encoding="UTF-8"?>
<svg width="72px" height="26px" viewBox="0 0 72 26" version="1.1" xmlns="http://www.w3.org/2000/svg" xmlns:xlink="http://www.w3.org/1999/xlink">
    <!-- Generator: Sketch 51.2 (57519) - http://www.bohemiancoding.com/sketch -->
    <title>rail-sm</title>
    <desc>Created with Sketch.</desc>
    <defs></defs>
    <g id="rail-sm" stroke="none" stroke-width="1" fill="none" fill-rule="evenodd">
        <g id="ic/multi-modal/rail-mini" fill="#575451">
            <path d="M55,19 C56.1933675,19.0000445 57,19.8962065 57,21 C57,22.103838 56.1933675,23 55,23 C54.5324415,23 53.9492951,22.5953276 54,22 L49,22 C49.0510253,22.5953276 48.4676786,23 48,23 C46.8065924,23 46,22.103838 46,21 C46,19.8962065 46.8065924,19 48,19 L55,19 Z M22,19 C23.1934193,19.0000445 24,19.8962065 24,21 C24,22.103838 23.1934193,23 22,23 C21.5323173,23 20.9490992,22.5953276 21,22 L16,22 C16.0509008,22.5953276 15.4676827,23 15,23 C13.8065807,23 13,22.103838 13,21 C13,19.8962065 13.8065807,19 15,19 L22,19 Z M9,17 L62,17 L62,20 L59,20 L59,18 L12,18 L12,20 L9,20 L9,17 Z M25,18 L45,18 L44,20 L26,20 L25,18 Z M12,17 L58,17 L58,4 L12,4 L12,17 Z" id="Rail-mini"></path>
        </g>
    </g>
</svg>