<?xml version="1.0" encoding="UTF-8"?>
<svg width="72px" height="26px" viewBox="0 0 72 26" version="1.1" xmlns="http://www.w3.org/2000/svg" xmlns:xlink="http://www.w3.org/1999/xlink">
    <!-- Generator: Sketch 51.2 (57519) - http://www.bohemiancoding.com/sketch -->
    <title>tl-sm</title>
    <desc>Created with Sketch.</desc>
    <defs></defs>
    <g id="tl-sm" stroke="none" stroke-width="1" fill="none" fill-rule="evenodd">
        <g id="ic/multi-modal/truckload-mini" fill="#575451">
            <path d="M9.00002225,20 C10.1038281,20 11,20.8962065 11,22 C11,23.103838 10.1038281,24 9.00002225,24 C7.89617195,24 7,23.103838 7,22 C7,20.8962065 7.89617195,20 9.00002225,20 Z M14.0000222,20 C15.1038281,20 16,20.8962065 16,22 C16,23.103838 15.1038281,24 14.0000222,24 C12.8961719,24 12,23.103838 12,22 C12,20.8962065 12.8961719,20 14.0000222,20 Z M62.9997775,20 C64.1037935,20 65,20.8962065 65,22 C65,23.103838 64.1037935,24 62.9997775,24 C61.8957615,24 61,23.103838 61,22 C61,20.8962065 61.8957615,20 62.9997775,20 Z M38,20 C39.103838,20 40,20.8962065 40,22 C40,23.103838 39.103838,24 38,24 C36.896162,24 36,23.103838 36,22 C36,20.8962065 36.896162,20 38,20 Z M42.9997775,20 C44.1037935,20 45,20.8962065 45,22 C45,23.103838 44.1037935,24 42.9997775,24 C41.896162,24 41,23.103838 41,22 C41,20.8962065 41.896162,20 42.9997775,20 Z M68,22 L66.2935363,22 C66.2935363,20.4989633 65.4200326,18.7620612 63.1040489,18.7620612 C60.7880652,18.7620612 59.5098034,20.4989633 59.5098034,22 L48,22 L48,19 L68,19 L68,22 Z M68,19 L3,19 L3,18.006999 L49.4839988,18.006999 L49.4839988,4 C49.4839988,4 51.3043684,4 53.4449066,4 C54.4742041,4 55.4616195,4.42474864 56.1900034,5.1808239 C56.9179321,5.93689917 57.3267376,6.96236644 57.3267376,8.03156617 L57.3267376,7.67225076 L60.3123632,7.67225076 L60.7676031,11.6023576 L60.7676031,11.5 L68,12.4455669 L68,19 Z M3,18 L48,18 L48,3 L3,3 L3,18 Z" id="Truckload-mini"></path>
        </g>
    </g>
</svg>