<?xml version="1.0" encoding="UTF-8"?>
<svg width="188px" height="64px" viewBox="0 0 188 64" version="1.1" xmlns="http://www.w3.org/2000/svg" xmlns:xlink="http://www.w3.org/1999/xlink">
    <!-- Generator: Sketch 51.2 (57519) - http://www.bohemiancoding.com/sketch -->
    <title>tl</title>
    <desc>Created with Sketch.</desc>
    <defs></defs>
    <g id="tl" stroke="none" stroke-width="1" fill="none" fill-rule="evenodd">
        <g id="ic/multi-modal/truckload" fill="#575451">
            <path d="M30.5000501,47 C32.9836131,47 35,49.0164646 35,51.5 C35,53.9836356 32.9836131,56 30.5000501,56 C28.0163869,56 26,53.9836356 26,51.5 C26,49.0164646 28.0163869,47 30.5000501,47 Z M41.5000501,47 C43.9836131,47 46,49.0164646 46,51.5 C46,53.9836356 43.9836131,56 41.5000501,56 C39.0163869,56 37,53.9836356 37,51.5 C37,49.0164646 39.0163869,47 41.5000501,47 Z M163.499499,47 C165.983535,47 168,49.0164646 168,51.5 C168,53.9836356 165.983535,56 163.499499,56 C161.015463,56 159,53.9836356 159,51.5 C159,49.0164646 161.015463,47 163.499499,47 Z M104.5,47 C106.983636,47 109,49.0164646 109,51.5 C109,53.9836356 106.983636,56 104.5,56 C102.016364,56 100,53.9836356 100,51.5 C100,49.0164646 102.016364,47 104.5,47 Z M115.499499,47 C117.983535,47 120,49.0164646 120,51.5 C120,53.9836356 117.983535,56 115.499499,56 C113.016364,56 111,53.9836356 111,51.5 C111,49.0164646 113.016364,47 115.499499,47 Z M174,52 L169.513126,52 C169.513126,48.4975809 166.736591,45.6541816 163.317925,45.6541816 C159.899259,45.6541816 157.122723,48.4975809 157.122723,52 L126,52 L126,45 L174,45 L174,52 Z M174,45 L14,45 L14,41.9224446 L129.971213,41.9224446 L129.971213,13 C129.971213,13 135.215054,13 139.906645,13 C142.162639,13 144.326837,13.9061304 145.923295,15.519091 C147.518755,17.1320516 148.414767,19.3197151 148.414767,21.6006745 L148.414767,20.834135 L157.150385,20.834135 L158.148171,29.2183629 L158.148171,29 L174,31.0172093 L174,45 Z M14,40 L127,40 L127,8 L14,8 L14,40 Z" id="Truckload"></path>
        </g>
    </g>
</svg>