<?xml version="1.0" encoding="UTF-8"?>
<svg width="188px" height="64px" viewBox="0 0 188 64" version="1.1" xmlns="http://www.w3.org/2000/svg" xmlns:xlink="http://www.w3.org/1999/xlink">
    <!-- Generator: Sketch 51.2 (57519) - http://www.bohemiancoding.com/sketch -->
    <title>parcel</title>
    <desc>Created with Sketch.</desc>
    <defs></defs>
    <g id="parcel" stroke="none" stroke-width="1" fill="none" fill-rule="evenodd">
        <g id="ic/multi-modal/parcel" fill="#575451">
            <path d="M113.084559,49 L82.916229,49 C82.971264,48.670674 83,48.3365284 83,48 C83,43.3606677 79.6393323,40 76,40 C72.4383655,40 69.6303371,41.9806754 68.5179409,45 L56,45 L56,12 L116,12 L125,26 L133,29 L133,45 L127.494606,45 C126.423658,41.9806754 123.794003,40 121,40 C116.360573,40 113,43.3606677 113,48 C113,48.3365284 113.028735,48.670674 113.084559,49 Z M76,42 C78.5355272,42 81,44.4644728 81,48 C81,50.5355272 78.5355272,53 76,53 C72.4644728,53 70,50.5355272 70,48 C70,44.4644728 72.4644728,42 76,42 Z M121,42 C123.535555,42 126,44.4644728 126,48 C126,50.5355272 123.535555,53 121,53 C117.464445,53 115,50.5355272 115,48 C115,44.4644728 117.464445,42 121,42 Z" id="Parcel"></path>
        </g>
    </g>
</svg>