<?xml version="1.0" encoding="UTF-8"?>
<svg width="188px" height="64px" viewBox="0 0 188 64" version="1.1" xmlns="http://www.w3.org/2000/svg" xmlns:xlink="http://www.w3.org/1999/xlink">
    <!-- Generator: Sketch 51.2 (57519) - http://www.bohemiancoding.com/sketch -->
    <title>rail</title>
    <desc>Created with Sketch.</desc>
    <defs></defs>
    <g id="rail" stroke="none" stroke-width="1" fill="none" fill-rule="evenodd">
        <g id="ic/multi-modal/rail" fill="#575451">
            <path d="M142.966467,47.0217548 C145.441894,47.0218547 147.45218,49.0333452 147.45218,51.5108774 C147.45218,53.9885095 145.441894,56 142.966467,56 C141.30254,56 139.849225,55.091688 139.074656,53.7440024 L128.416345,53.7440024 C127.641776,55.091688 126.187962,56 124.524136,56 C122.048209,56 120.038023,53.9885095 120.038023,51.5108774 C120.038023,49.0333452 122.048209,47.0217548 124.524136,47.0217548 L142.966467,47.0217548 Z M62.6306731,47.0217548 C65.1066991,47.0218547 67.1168856,49.0333452 67.1168856,51.5108774 C67.1168856,53.9885095 65.1066991,56 62.6306731,56 C60.9668467,56 59.5133319,55.091688 58.7387627,53.7440024 L48.0803523,53.7440024 C47.305883,55.091688 45.8523681,56 44.1885418,56 C41.7125158,56 39.7023293,53.9885095 39.7023293,51.5108774 C39.7023293,49.0333452 41.7125158,47.0217548 44.1885418,47.0217548 L62.6306731,47.0217548 Z M29,41.9765982 L160,41.9765982 L160,48.2349016 L151.915934,48.2349016 L151.915934,45.0241477 L37.0847648,45.0241477 L37.0847648,48.2349016 L29,48.2349016 L29,41.9765982 Z M67.8863641,45.0241477 L118.35613,45.0241477 L115.361662,47.6843611 L70.8808324,47.6843611 L67.8863641,45.0241477 Z M36.7936027,39.7893183 L149.448492,39.7893183 L149.448492,9 L36.7936027,9 L36.7936027,39.7893183 Z" id="Rail"></path>
        </g>
    </g>
</svg>